# This file uses centimeters as units for non-parametric coordinates.

mtllib rebar main.mtl
g default
v 101.310508 134.713454 -163.171040
v 101.310508 133.963454 -163.715947
v 101.310508 133.036402 -163.715947
v 101.310508 132.286402 -163.171039
v 101.310508 131.999927 -162.289361
v 101.310508 132.286402 -161.407683
v 101.310508 133.036402 -160.862776
v 101.310508 133.963453 -160.862776
v 101.310508 134.713453 -161.407683
v 101.310508 134.999928 -162.289361
v -101.310508 134.713454 -163.171040
v -101.310508 133.963454 -163.715947
v -101.310508 133.036402 -163.715947
v -101.310508 132.286402 -163.171039
v -101.310508 131.999927 -162.289361
v -101.310508 132.286402 -161.407683
v -101.310508 133.036402 -160.862776
v -101.310508 133.963453 -160.862776
v -101.310508 134.713453 -161.407683
v -101.310508 134.999928 -162.289361
vt 0.000000 0.000000
vt 0.066500 0.000000
vt 0.133000 0.000000
vt 0.199500 0.000000
vt 0.266000 0.000000
vt 0.332500 0.000000
vt 0.399000 0.000000
vt 0.465500 0.000000
vt 0.531999 0.000000
vt 0.598499 0.000000
vt 0.000000 1.000000
vt 0.066500 1.000000
vt 0.133000 1.000000
vt 0.199500 1.000000
vt 0.266000 1.000000
vt 0.332500 1.000000
vt 0.399000 1.000000
vt 0.465500 1.000000
vt 0.531999 1.000000
vt 0.598499 1.000000
vn 0.000000 0.809017 -0.587785
vn 0.000000 0.809017 -0.587785
vn 0.000000 0.309017 -0.951057
vn 0.000000 0.309017 -0.951057
vn -0.000000 -0.309017 -0.951056
vn -0.000000 -0.309017 -0.951056
vn -0.000000 -0.809017 -0.587785
vn -0.000000 -0.809017 -0.587785
vn 0.000000 -1.000000 0.000000
vn 0.000000 -1.000000 0.000000
vn 0.000000 -0.809017 0.587785
vn 0.000000 -0.809017 0.587785
vn 0.000000 -0.309017 0.951057
vn 0.000000 -0.309017 0.951057
vn 0.000000 0.309017 0.951057
vn 0.000000 0.309017 0.951057
vn 0.000000 0.809017 0.587785
vn 0.000000 0.809017 0.587785
vn 0.000000 1.000000 0.000000
vn 0.000000 1.000000 0.000000
s 1
g rebar_main
usemtl initialShadingGroup
f 11/11/1 1/1/2 2/2/3 12/12/4
f 12/12/4 2/2/3 3/3/5 13/13/6
f 13/13/6 3/3/5 4/4/7 14/14/8
f 14/14/8 4/4/7 5/5/9 15/15/10
f 15/15/10 5/5/9 6/6/11 16/16/12
f 16/16/12 6/6/11 7/7/13 17/17/14
f 17/17/14 7/7/13 8/8/15 18/18/16
f 18/18/16 8/8/15 9/9/17 19/19/18
f 19/19/18 9/9/17 10/10/19 20/20/20
f 20/20/20 10/10/19 1/1/2 11/11/1
