# This file uses centimeters as units for non-parametric coordinates.

mtllib window_wood.mtl
g default
v 146.634995 190.422913 158.382172
v 151.634995 190.422913 158.382172
v 146.634995 195.422913 158.382172
v 151.634995 195.422913 158.382172
v 146.634995 195.422913 -86.632614
v 151.634995 195.422913 -86.632614
v 146.634995 190.422913 -86.632614
v 151.634995 190.422913 -86.632614
v 146.931381 195.784546 158.382172
v 149.659531 195.784546 158.382172
v 146.931381 198.512695 158.382172
v 149.659531 198.512695 158.382172
v 146.931381 198.512695 -86.632614
v 149.659531 198.512695 -86.632614
v 146.931381 195.784546 -86.632614
v 149.659531 195.784546 -86.632614
v 148.010025 192.893372 161.029480
v 151.281754 192.893372 161.029480
v 148.010025 218.652954 161.029480
v 151.281754 218.652954 161.029480
v 148.010025 218.652954 -88.314842
v 151.281754 218.652954 -88.314842
v 148.010025 192.893372 -88.314842
v 151.281754 192.893372 -88.314842
vt 0.580325 0.224517
vt 0.710853 0.224517
vt 0.580325 0.355045
vt 0.710853 0.355045
vt 0.580325 0.485573
vt 0.710853 0.485573
vt 0.580325 0.616101
vt 0.710853 0.616101
vt 0.580325 0.746628
vt 0.710853 0.746628
vt 0.841381 0.224517
vt 0.841381 0.355045
vt 0.449797 0.224517
vt 0.449797 0.355045
vt 0.807610 0.355045
vt 0.903805 0.355045
vt 0.903805 0.451240
vt 0.807610 0.451240
vt 0.903805 0.547435
vt 0.807610 0.547435
vt 0.903805 0.643631
vt 0.807610 0.643631
vt 0.903805 0.739826
vt 0.807610 0.739826
vt 1.000000 0.355045
vt 1.000000 0.451240
vt 0.711414 0.355045
vt 0.711414 0.451240
vt 0.224517 0.000000
vt 0.449034 0.000000
vt 0.449034 0.224517
vt 0.224517 0.224517
vt 0.449034 0.449034
vt 0.224517 0.449034
vt 0.449034 0.673551
vt 0.224517 0.673551
vt 0.449034 0.898068
vt 0.224517 0.898068
vt 0.673551 0.000000
vt 0.673551 0.224517
vt 0.000000 0.000000
vt 0.000000 0.224517
vn 0.000000 0.000000 1.000000
vn 0.000000 0.000000 1.000000
vn 0.000000 0.000000 1.000000
vn 0.000000 0.000000 1.000000
vn 0.000000 1.000000 0.000000
vn 0.000000 1.000000 0.000000
vn 0.000000 1.000000 0.000000
vn 0.000000 1.000000 0.000000
vn 0.000000 0.000000 -1.000000
vn 0.000000 0.000000 -1.000000
vn 0.000000 0.000000 -1.000000
vn 0.000000 0.000000 -1.000000
vn 0.000000 -1.000000 0.000000
vn 0.000000 -1.000000 0.000000
vn 0.000000 -1.000000 0.000000
vn 0.000000 -1.000000 0.000000
vn 1.000000 0.000000 0.000000
vn 1.000000 0.000000 0.000000
vn 1.000000 0.000000 0.000000
vn 1.000000 0.000000 0.000000
vn -1.000000 0.000000 0.000000
vn -1.000000 0.000000 0.000000
vn -1.000000 0.000000 0.000000
vn -1.000000 0.000000 0.000000
vn 0.000000 0.000000 1.000000
vn 0.000000 0.000000 1.000000
vn 0.000000 0.000000 1.000000
vn 0.000000 0.000000 1.000000
vn 0.000000 1.000000 0.000000
vn 0.000000 1.000000 0.000000
vn 0.000000 1.000000 0.000000
vn 0.000000 1.000000 0.000000
vn 0.000000 0.000000 -1.000000
vn 0.000000 0.000000 -1.000000
vn 0.000000 0.000000 -1.000000
vn 0.000000 0.000000 -1.000000
vn 0.000000 -1.000000 0.000000
vn 0.000000 -1.000000 0.000000
vn 0.000000 -1.000000 0.000000
vn 0.000000 -1.000000 0.000000
vn 1.000000 0.000000 0.000000
vn 1.000000 0.000000 0.000000
vn 1.000000 0.000000 0.000000
vn 1.000000 0.000000 0.000000
vn -1.000000 0.000000 0.000000
vn -1.000000 0.000000 0.000000
vn -1.000000 0.000000 0.000000
vn -1.000000 0.000000 0.000000
vn 0.000000 0.000000 1.000000
vn 0.000000 0.000000 1.000000
vn 0.000000 0.000000 1.000000
vn 0.000000 0.000000 1.000000
vn 0.000000 1.000000 0.000000
vn 0.000000 1.000000 0.000000
vn 0.000000 1.000000 0.000000
vn 0.000000 1.000000 0.000000
vn 0.000000 0.000000 -1.000000
vn 0.000000 0.000000 -1.000000
vn 0.000000 0.000000 -1.000000
vn 0.000000 0.000000 -1.000000
vn 0.000000 -1.000000 0.000000
vn 0.000000 -1.000000 0.000000
vn 0.000000 -1.000000 0.000000
vn 0.000000 -1.000000 0.000000
vn 1.000000 0.000000 0.000000
vn 1.000000 0.000000 0.000000
vn 1.000000 0.000000 0.000000
vn 1.000000 0.000000 0.000000
vn -1.000000 0.000000 0.000000
vn -1.000000 0.000000 0.000000
vn -1.000000 0.000000 0.000000
vn -1.000000 0.000000 0.000000
s off
g window_wood
usemtl lambert2SG
f 1/1/1 2/2/2 4/4/3 3/3/4
f 3/3/5 4/4/6 6/6/7 5/5/8
f 5/5/9 6/6/10 8/8/11 7/7/12
f 7/7/13 8/8/14 2/10/15 1/9/16
f 2/2/17 8/11/18 6/12/19 4/4/20
f 7/13/21 1/1/22 3/3/23 5/14/24
f 9/15/25 10/16/26 12/17/27 11/18/28
f 11/18/29 12/17/30 14/19/31 13/20/32
f 13/20/33 14/19/34 16/21/35 15/22/36
f 15/22/37 16/21/38 10/23/39 9/24/40
f 10/16/41 16/25/42 14/26/43 12/17/44
f 15/27/45 9/15/46 11/18/47 13/28/48
f 17/29/49 18/30/50 20/31/51 19/32/52
f 19/32/53 20/31/54 22/33/55 21/34/56
f 21/34/57 22/33/58 24/35/59 23/36/60
f 23/36/61 24/35/62 18/37/63 17/38/64
f 18/30/65 24/39/66 22/40/67 20/31/68
f 23/41/69 17/29/70 19/32/71 21/42/72
