# This file uses centimeters as units for non-parametric coordinates.

mtllib desk_leg.mtl
g default
v -101.614586 -5.239130 -28.681616
v -95.685600 -5.239130 -28.681616
v -102.679398 68.438499 -27.616810
v -94.620789 68.438499 -27.616810
v -102.679398 68.438499 -35.675415
v -94.620789 68.438499 -35.675415
v -101.614586 -5.239130 -34.610607
v -95.685600 -5.239130 -34.610607
v -18.635908 -5.239130 -28.681616
v -12.706917 -5.239130 -28.681616
v -19.700718 68.438499 -27.616810
v -11.642107 68.438499 -27.616810
v -19.700718 68.438499 -35.675415
v -11.642107 68.438499 -35.675415
v -18.635908 -5.239130 -34.610607
v -12.706917 -5.239130 -34.610607
v -18.635908 -5.239130 154.252670
v -12.706917 -5.239130 154.252670
v -19.700718 68.438499 155.317474
v -11.642107 68.438499 155.317474
v -19.700718 68.438499 147.258881
v -11.642107 68.438499 147.258881
v -18.635908 -5.239130 148.323685
v -12.706917 -5.239130 148.323685
v -101.614586 -5.239130 154.252670
v -95.685600 -5.239130 154.252670
v -102.679398 68.438499 155.317474
v -94.620789 68.438499 155.317474
v -102.679398 68.438499 147.258881
v -94.620789 68.438499 147.258881
v -101.614586 -5.239130 148.323685
v -95.685600 -5.239130 148.323685
vt 0.375000 0.000000
vt 0.625000 0.000000
vt 0.375000 0.250000
vt 0.625000 0.250000
vt 0.375000 0.500000
vt 0.625000 0.500000
vt 0.375000 0.750000
vt 0.625000 0.750000
vt 0.875000 0.000000
vt 0.875000 0.250000
vt 0.125000 0.000000
vt 0.125000 0.250000
vt 0.375000 0.000000
vt 0.625000 0.000000
vt 0.625000 0.250000
vt 0.375000 0.250000
vt 0.375000 0.500000
vt 0.625000 0.500000
vt 0.625000 0.750000
vt 0.375000 0.750000
vt 0.875000 0.000000
vt 0.875000 0.250000
vt 0.125000 0.000000
vt 0.125000 0.250000
vt 0.375000 0.000000
vt 0.625000 0.000000
vt 0.625000 0.250000
vt 0.375000 0.250000
vt 0.375000 0.500000
vt 0.625000 0.500000
vt 0.625000 0.750000
vt 0.375000 0.750000
vt 0.875000 0.000000
vt 0.875000 0.250000
vt 0.125000 0.000000
vt 0.125000 0.250000
vt 0.375000 0.000000
vt 0.625000 0.000000
vt 0.625000 0.250000
vt 0.375000 0.250000
vt 0.375000 0.500000
vt 0.625000 0.500000
vt 0.625000 0.750000
vt 0.375000 0.750000
vt 0.875000 0.000000
vt 0.875000 0.250000
vt 0.125000 0.000000
vt 0.125000 0.250000
vn 0.000000 -0.014451 0.999896
vn 0.000000 -0.014451 0.999896
vn 0.000000 -0.014451 0.999896
vn 0.000000 -0.014451 0.999896
vn 0.000000 -0.014451 -0.999896
vn 0.000000 -0.014451 -0.999896
vn 0.000000 -0.014451 -0.999896
vn 0.000000 -0.014451 -0.999896
vn 0.999896 -0.014451 0.000000
vn 0.999896 -0.014451 0.000000
vn 0.999896 -0.014451 0.000000
vn 0.999896 -0.014451 0.000000
vn -0.999896 -0.014451 0.000000
vn -0.999896 -0.014451 0.000000
vn -0.999896 -0.014451 0.000000
vn -0.999896 -0.014451 0.000000
vn 0.000000 -0.014451 0.999896
vn 0.000000 -0.014451 0.999896
vn 0.000000 -0.014451 0.999896
vn 0.000000 -0.014451 0.999896
vn 0.000000 -0.014451 -0.999896
vn 0.000000 -0.014451 -0.999896
vn 0.000000 -0.014451 -0.999896
vn 0.000000 -0.014451 -0.999896
vn 0.999896 -0.014451 0.000000
vn 0.999896 -0.014451 0.000000
vn 0.999896 -0.014451 0.000000
vn 0.999896 -0.014451 0.000000
vn -0.999896 -0.014451 0.000000
vn -0.999896 -0.014451 0.000000
vn -0.999896 -0.014451 0.000000
vn -0.999896 -0.014451 0.000000
vn 0.000000 -0.014451 0.999896
vn 0.000000 -0.014451 0.999896
vn 0.000000 -0.014451 0.999896
vn 0.000000 -0.014451 0.999896
vn 0.000000 -0.014451 -0.999896
vn 0.000000 -0.014451 -0.999896
vn 0.000000 -0.014451 -0.999896
vn 0.000000 -0.014451 -0.999896
vn 0.999896 -0.014451 0.000000
vn 0.999896 -0.014451 0.000000
vn 0.999896 -0.014451 0.000000
vn 0.999896 -0.014451 0.000000
vn -0.999896 -0.014451 0.000000
vn -0.999896 -0.014451 0.000000
vn -0.999896 -0.014451 0.000000
vn -0.999896 -0.014451 0.000000
vn 0.000000 -0.014451 0.999896
vn 0.000000 -0.014451 0.999896
vn 0.000000 -0.014451 0.999896
vn 0.000000 -0.014451 0.999896
vn 0.000000 -0.014451 -0.999896
vn 0.000000 -0.014451 -0.999896
vn 0.000000 -0.014451 -0.999896
vn 0.000000 -0.014451 -0.999896
vn 0.999896 -0.014451 0.000000
vn 0.999896 -0.014451 0.000000
vn 0.999896 -0.014451 0.000000
vn 0.999896 -0.014451 0.000000
vn -0.999896 -0.014451 0.000000
vn -0.999896 -0.014451 0.000000
vn -0.999896 -0.014451 0.000000
vn -0.999896 -0.014451 0.000000
s off
g desk_leg desk2
usemtl lambert2SG
f 1/1/1 2/2/2 4/4/3 3/3/4
f 5/5/5 6/6/6 8/8/7 7/7/8
f 2/2/9 8/9/10 6/10/11 4/4/12
f 7/11/13 1/1/14 3/3/15 5/12/16
f 9/13/17 10/14/18 12/15/19 11/16/20
f 13/17/21 14/18/22 16/19/23 15/20/24
f 10/14/25 16/21/26 14/22/27 12/15/28
f 15/23/29 9/13/30 11/16/31 13/24/32
f 17/25/33 18/26/34 20/27/35 19/28/36
f 21/29/37 22/30/38 24/31/39 23/32/40
f 18/26/41 24/33/42 22/34/43 20/27/44
f 23/35/45 17/25/46 19/28/47 21/36/48
f 25/37/49 26/38/50 28/39/51 27/40/52
f 29/41/53 30/42/54 32/43/55 31/44/56
f 26/38/57 32/45/58 30/46/59 28/39/60
f 31/47/61 25/37/62 27/40/63 29/48/64
