# This file uses centimeters as units for non-parametric coordinates.

mtllib wood_window.mtl
g default
v 143.506134 75.381523 210.775009
v 145.506134 75.381523 210.775009
v 145.506134 82.381523 210.775009
v 145.506134 82.381523 -149.309860
v 143.506134 75.381523 -149.309860
v 145.506134 75.381523 -149.309860
v 144.506027 82.381523 210.775009
v 143.798996 82.088654 210.775009
v 143.506134 81.381622 210.775009
v 143.506134 81.381622 -149.309860
v 143.798996 82.088654 -149.309860
v 144.506027 82.381523 -149.309860
v 145.013596 73.096619 212.158417
v 145.013596 76.096619 212.158417
v 145.013596 76.096619 -163.289429
v 145.013596 73.096619 -163.289429
v 95.984985 75.876968 212.158417
v 95.765335 75.346695 212.158417
v 96.515259 76.096619 212.158417
v 95.765335 75.346695 -163.289429
v 95.984985 75.876968 -163.289429
v 96.515259 76.096619 -163.289429
v 95.984985 73.316269 212.158417
v 96.515259 73.096619 212.158417
v 95.765335 73.846542 212.158417
v 95.984985 73.316269 -163.289429
v 95.765335 73.846542 -163.289429
v 96.515259 73.096619 -163.289429
vt 0.765329 0.000000
vt 0.763588 0.131008
vt 0.765329 0.184939
vt 0.864183 0.184939
vt 0.765329 0.283793
vt 0.864183 0.283793
vt 0.950268 0.000000
vt 0.950268 0.184939
vt 0.501572 0.000000
vt 0.632580 0.000000
vt 0.501572 0.112294
vt 0.698077 0.131008
vt 0.763588 0.262016
vt 0.632580 0.112294
vt 0.698077 0.262016
vt 0.632580 0.131008
vt 0.632580 0.262016
vt 0.007614 1.000000
vt 0.007614 0.500000
vt 0.500000 0.500000
vt 0.500000 1.000000
vt 0.007614 0.500000
vt 0.007614 0.000000
vt 0.500000 0.000000
vt 0.500000 0.500000
vt 0.635612 0.029035
vt 0.751762 0.029035
vt 0.751762 0.087115
vt 0.635612 0.087115
vt 0.751762 0.116150
vt 0.635612 0.116150
vt 0.000000 1.000000
vt 0.000000 0.500000
vt 0.000000 0.000000
vt 0.751762 0.000000
vt 0.635612 0.000000
vt 0.000000 0.500000
vt 0.765329 0.184939
vn -0.169086 0.985601 0.000000
vn -0.169086 0.985601 0.000000
vn 0.000000 1.000000 0.000000
vn 0.000000 1.000000 0.000000
vn 0.000000 -1.000000 0.000000
vn 0.000000 -1.000000 0.000000
vn 0.000000 -1.000000 0.000000
vn 0.000000 -1.000000 0.000000
vn 1.000000 0.000000 0.000000
vn 1.000000 0.000000 0.000000
vn 1.000000 0.000000 0.000000
vn 1.000000 0.000000 0.000000
vn -1.000000 0.000000 0.000000
vn -1.000000 0.000000 0.000000
vn -0.999048 0.043623 0.000000
vn -0.999048 0.043623 0.000000
vn -0.923877 0.382689 0.000000
vn -0.923877 0.382689 0.000000
vn -0.382694 0.923875 0.000000
vn -0.382694 0.923875 0.000000
vn -0.004480 0.999990 0.000000
vn -0.004480 0.999990 0.000000
vn 0.000000 1.000000 0.000000
vn 0.000000 1.000000 0.000000
vn -0.004480 -0.999990 0.000000
vn -0.004480 -0.999990 0.000000
vn 0.000000 -1.000000 0.000000
vn 0.000000 -1.000000 0.000000
vn -0.994200 -0.107549 0.000000
vn -0.994200 -0.107549 0.000000
vn -0.994200 0.107549 0.000000
vn -0.994200 0.107549 0.000000
vn -0.923881 0.382680 0.000000
vn -0.923881 0.382680 0.000000
vn -0.382689 0.923877 0.000000
vn -0.382689 0.923877 0.000000
vn -0.382689 -0.923877 0.000000
vn -0.382689 -0.923877 0.000000
vn -0.923881 -0.382680 0.000000
vn -0.923881 -0.382680 0.000000
s 1
g wood_window
usemtl lambert2SG
f 12/15/1 7/12/2 3/2/3 4/13/4
s off
f 5/3/5 6/4/6 2/6/7 1/5/8
f 2/1/9 6/7/10 4/8/11 3/38/12
s 2
f 5/9/13 1/10/14 9/14/15 10/11/16
f 9/14/15 8/16/17 11/17/18 10/11/16
s 1
f 8/16/19 7/12/2 12/15/1 11/17/20
s 3
f 22/18/21 19/19/22 14/20/23 15/21/24
s 4
f 24/22/25 28/23/26 16/24/27 13/25/28
s 5
f 27/26/29 25/27/30 18/28/31 20/29/32
f 18/28/31 17/30/33 21/31/34 20/29/32
s 3
f 17/37/35 19/19/22 22/18/21 21/32/36
s 4
f 24/22/25 23/33/37 26/34/38 28/23/26
s 5
f 23/35/39 25/27/30 27/26/29 26/36/40
